<?xml version="1.0" standalone="no"?>
<!DOCTYPE svg PUBLIC "-//W3C//DTD SVG 20010904//EN"
 "http://www.w3.org/TR/2001/REC-SVG-20010904/DTD/svg10.dtd">
<svg version="1.0" xmlns="http://www.w3.org/2000/svg"
 width="700.000000pt" height="700.000000pt" viewBox="0 0 700.000000 700.000000"
 preserveAspectRatio="xMidYMid meet">
<metadata>
Created by potrace 1.14, written by Peter Selinger 2001-2017
</metadata>
<g transform="translate(0.000000,700.000000) scale(0.100000,-0.100000)"
fill="#000000" stroke="none">
<path d="M1889 6996 c-2 -2 -34 -6 -70 -10 -168 -15 -397 -75 -569 -148 -510
-216 -907 -624 -1111 -1143 -7 -16 -13 -32 -14 -35 0 -3 -13 -42 -28 -87 -26
-80 -49 -169 -62 -243 -32 -179 -33 -215 -31 -2055 1 -1007 5 -1846 9 -1865
21 -110 30 -150 44 -200 8 -30 17 -62 20 -70 3 -8 7 -20 8 -25 5 -23 60 -154
87 -208 130 -260 340 -493 583 -649 106 -67 318 -168 353 -168 10 0 22 -4 27
-9 12 -11 204 -56 290 -68 74 -10 4059 -11 4135 -1 87 12 171 28 225 44 28 9
59 17 71 20 36 7 195 74 269 112 338 177 608 476 756 837 22 54 41 105 43 114
1 9 10 41 19 71 9 30 19 71 22 90 34 200 34 182 34 2015 0 1719 -1 1806 -19
1922 -25 161 -41 227 -89 371 -40 119 -111 276 -171 382 -32 55 -131 199 -153
222 -7 7 -25 31 -42 53 -51 69 -234 243 -336 320 -285 215 -604 346 -964 395
-121 17 -245 19 -1731 19 -881 0 -1603 -1 -1605 -3z"/>
</g>
</svg>
